PathFileType	4	(X/Y/Z)	C:\Users\WrightLab\Desktop\Jo\P5V21.trc
DataRate	CameraRate	NumFrames	NumMarkers	Units	OrigDataRate	OrigDataStartFrame	OrigNumFrames
100.00	100.00	       20	19	mm	100.00	1	       399
Frame#	Time	Headset_Front			Headset_Back			Headset_Left			Headset_Right			Left_Shoulder			Right_Shoulder			Sternum			C7			Left Elbow			Right Elbow			Left Wrist			Right Wrist			Left ASIS			Right ASIS			S2			Left Knee			Right Knee			Left Ankle			Right Ankle			
		X1	Y1	Z1	X2	Y2	Z2	X3	Y3	Z3	X4	Y4	Z4	X5	Y5	Z5	X6	Y6	Z6	X7	Y7	Z7	X8	Y8	Z8	X9	Y9	Z9	X10	Y10	Z10	X11	Y11	Z11	X12	Y12	Z12	X13	Y13	Z13	X14	Y14	Z14	X15	Y15	Z15	X16	Y16	Z16	X17	Y17	Z17	X18	Y18	Z18	X19	Y19	Z19	

1	0.000	-210.58334	1454.63220	-574.22833							-167.92316	1588.38647	-732.06439				-462.42163	1433.70288	-645.45447	-299.18985	1276.82312	-742.38245	-418.85632	1506.86621	-869.64893	-117.76907	1346.98242	-863.05151	-500.29926	1197.61548	-509.67328				-323.73441	1122.36462	-346.75165	-181.13832	903.67487	-810.80664	-433.91547	913.14343	-679.02563	-438.25104	962.67603	-1000.43652	-138.81805	526.52612	-683.50830	-515.10651	473.37750	-748.86383	-163.93098	103.75114	-739.51471	-516.01508	78.66087	-897.46265	
2	0.010	-205.74152	1453.13184	-569.40985							-164.96242	1586.88220	-727.69818				-458.55310	1432.80164	-638.82538	-294.90457	1276.22729	-736.37909	-416.78220	1506.51794	-862.54633	-115.83863	1346.53381	-858.96875	-494.33881	1198.33826	-500.43585				-315.58670	1121.63550	-338.15781	-177.92305	903.70215	-807.32928	-430.88751	912.92188	-671.89581	-438.35132	962.98370	-996.71283	-136.10670	524.99457	-682.34222	-512.46039	472.72708	-745.09094	-154.36229	100.51506	-716.35010	-515.68042	79.20203	-896.16443	
3	0.020	-202.30254	1452.28271	-563.96985							-161.88777	1585.39331	-722.51208				-454.99249	1432.39587	-631.87531	-292.99365	1274.77051	-731.87445	-414.57034	1505.89417	-855.81024	-114.01859	1344.92542	-854.43005	-487.78610	1197.82861	-491.01199				-308.40802	1121.34192	-329.73022	-176.50417	902.73315	-803.09814	-426.78845	911.33325	-666.14526	-438.40244	963.24792	-991.98047	-133.14082	522.55609	-680.63971	-509.23077	471.52094	-741.22150	-147.42764	95.08743	-695.92224	-515.27789	79.88705	-894.61243	
4	0.030	-198.32547	1450.82275	-557.95496							-158.61913	1583.84412	-717.14307				-450.07889	1431.52246	-624.52844	-288.70819	1273.68079	-724.88202	-412.31256	1505.07922	-849.13873	-111.55142	1344.26245	-850.35748	-481.76440	1198.28320	-482.17889				-302.32724	1121.64551	-321.19733	-174.56290	901.74878	-798.43207	-424.30472	911.36450	-660.52679	-438.47388	963.50299	-987.60193	-131.12167	519.43842	-679.49225	-506.29089	470.71585	-737.50403	-140.40547	92.96324	-676.02374	-515.07257	80.22102	-893.81641	
5	0.040	-194.14455	1449.25745	-552.22852							-155.10820	1582.13245	-711.56244				-446.09662	1430.86035	-617.35535	-286.01157	1273.42749	-720.50726	-409.75327	1504.45374	-841.76318	-109.14097	1343.83521	-846.06610	-474.42212	1198.67175	-473.50693				-295.40399	1121.94873	-312.99573	-171.39801	900.63788	-794.20361	-420.83887	909.58081	-655.93945	-438.49561	963.25757	-982.41016	-128.74562	516.15106	-678.75085	-503.36639	470.91779	-733.24860	-132.93980	90.62346	-657.18622	-514.58899	80.08836	-895.21924	
6	0.050	-189.96585	1448.45227	-546.45795							-151.50795	1580.41272	-706.03693				-440.72119	1429.68408	-610.38928	-282.40729	1272.14966	-714.35358	-407.16339	1503.58984	-835.47937	-106.82365	1343.24780	-841.44122	-467.85995	1197.60339	-464.04605				-287.60583	1121.22729	-304.79279	-169.41235	899.78937	-788.95526	-417.09894	908.67456	-650.61267	-438.49655	963.19116	-978.15723	-126.33570	512.25909	-677.76929	-500.61700	469.26752	-729.67291	-124.61850	90.98428	-638.67590	-514.58899	80.08836	-895.21924	
7	0.060	-185.27367	1447.33936	-540.78381							-147.84750	1578.89331	-700.89502				-435.35913	1428.33789	-602.42328	-278.49829	1270.55005	-708.80151	-404.27435	1502.55872	-827.80603	-104.21264	1341.51477	-836.49384	-461.61578	1197.72107	-455.94858				-280.25809	1121.00891	-296.10870	-165.85503	899.12476	-784.33075	-414.09991	908.50189	-645.08258	-437.85727	963.27155	-972.73688	-124.34045	508.79904	-677.28717	-496.78290	468.80908	-725.56543	-119.12664	89.94884	-622.43628	-514.58899	80.08836	-895.21924	
8	0.070	-182.06583	1445.71399	-534.82922							-143.94775	1577.05908	-695.18317				-432.23569	1425.91077	-599.57220	-275.75003	1268.90222	-703.92523	-401.43225	1501.50195	-821.62244	-101.64381	1340.84094	-832.69873	-455.55331	1197.96179	-447.22290				-273.06726	1120.11975	-287.72437	-162.69611	898.64203	-777.95917	-409.67126	907.57819	-638.72839	-437.21524	963.40479	-968.66449	-122.73459	505.39676	-675.64551	-492.85040	466.66373	-724.16223	-111.94324	89.74646	-608.82739	-514.22290	79.75323	-897.07605	
9	0.080	-177.08582	1444.48511	-528.83789	-258.48676	1708.04187	-681.21906				-139.97705	1575.38660	-689.87219				-424.56302	1426.19800	-590.01831	-272.01532	1267.94446	-698.65631	-398.14441	1500.59521	-814.46576	-98.66770	1340.41797	-828.41364	-447.34674	1198.55090	-437.99228				-264.89368	1119.72339	-279.39307	-159.62326	897.78436	-772.34802	-407.25220	906.34821	-632.65851	-436.27939	962.30127	-962.93726	-121.26407	501.97791	-673.22308	-490.19385	466.87701	-717.63757	-108.10849	89.35802	-595.95044	-514.22290	79.75323	-897.07605	
10	0.090	-172.86572	1442.68115	-523.27716	-254.11800	1706.74805	-675.74744				-135.94763	1573.76257	-684.58777				-420.63519	1424.36121	-582.38116	-266.92352	1267.10364	-692.35278	-394.84998	1499.51343	-808.05212	-96.09605	1338.28394	-822.59125	-440.53314	1196.59253	-429.24551				-258.53925	1119.44983	-271.15396	-155.50894	897.58704	-767.02698	-402.01126	905.71161	-626.29724	-434.75684	961.74536	-957.45209	-119.43237	499.71854	-671.33929	-487.08240	465.86334	-712.26660	-106.66917	87.18183	-585.46655	-514.17755	79.84764	-896.90625	
11	0.100	-168.70538	1441.47461	-518.31580	-249.65895	1705.35168	-670.50647				-131.69930	1572.23730	-679.50903				-414.36728	1423.57581	-575.95917	-263.92966	1265.28992	-687.63385	-391.31360	1498.09253	-800.93756	-92.32463	1337.28516	-818.41211	-433.92642	1196.98730	-421.33292				-250.87039	1118.57312	-263.08994	-152.08775	896.08459	-760.76538	-399.36523	903.94684	-621.08240	-432.70010	961.43829	-952.09930	-117.59212	497.01126	-668.64709	-483.68051	464.77716	-711.81262	-102.25802	86.66730	-576.63379	-514.07349	80.06444	-896.51611	
12	0.110	-163.71542	1439.35315	-511.35867	-245.03226	1703.86780	-664.07397				-127.36012	1570.52344	-673.94427				-409.01160	1422.39124	-569.39069	-258.91229	1264.08240	-681.75470	-387.72720	1496.78943	-794.35669	-89.17774	1337.02771	-814.36975	-426.60837	1196.82837	-412.25787				-243.60077	1118.25513	-254.63155	-147.47568	894.95868	-754.05688	-395.32016	903.72900	-614.48944	-430.59311	959.93707	-945.81714	-115.69141	494.67001	-665.02649	-480.09201	463.20685	-708.19708	-100.27656	85.57548	-570.60461	-513.98395	80.25684	-896.18213	
13	0.120	-158.72362	1438.29138	-506.22458	-240.35463	1701.89441	-656.77087				-122.68789	1568.77661	-667.23920				-403.19070	1420.87146	-561.95197	-254.71617	1262.19092	-675.81934	-383.90036	1495.51831	-787.79095	-85.60566	1334.85132	-809.00354	-419.58777	1195.65686	-404.90308				-236.01372	1117.61682	-246.33936	-144.47661	893.89075	-748.32611	-391.51291	901.82532	-609.03705	-427.97372	959.36798	-940.30988	-113.49402	491.98209	-661.47137	-476.88937	461.67502	-703.77502	-98.71458	83.54140	-567.02692	-513.81549	80.65509	-895.56421	
14	0.130	-154.67114	1435.94446	-499.68414	-235.75505	1700.36438	-651.65405				-118.26672	1566.86523	-661.59344				-398.48941	1419.24146	-554.82965	-250.01573	1261.22571	-669.97913	-379.92157	1494.01172	-781.34619	-82.26010	1334.00891	-804.61285	-411.65540	1196.21667	-395.78079				-227.56175	1117.59338	-238.36124	-140.40388	892.06921	-742.02032	-386.81186	901.06110	-602.33521	-425.02939	957.84320	-933.45422	-111.35336	489.58365	-656.26001	-474.09692	461.22177	-697.14917	-96.37962	81.95764	-564.02954	-513.51715	81.34101	-894.46405	
15	0.140	-150.25743	1434.54907	-494.46823	-231.16496	1698.62622	-646.24628				-113.84258	1565.12207	-655.73663				-393.10696	1418.37769	-549.21796	-245.06361	1260.02368	-663.90302	-375.87793	1492.52283	-774.98999	-78.42508	1332.90833	-799.42841	-405.21036	1194.94031	-389.10101				-220.40712	1117.32532	-230.29718	-137.45007	890.37720	-735.72827	-383.10141	900.30133	-596.94794	-421.78839	957.00244	-927.47174	-108.86489	487.47986	-651.05676	-469.69873	459.98557	-690.91327	-98.09201	79.79740	-563.23126	-513.13879	82.23512	-893.07507	
16	0.150	-145.61784	1432.09106	-488.21753	-226.48264	1697.07153	-640.26392				-109.26380	1563.18311	-650.29913				-386.92004	1416.50549	-542.44141	-241.53413	1258.08313	-657.81128	-371.81970	1490.91016	-768.26776	-73.71522	1331.27075	-794.29889	-397.83652	1194.47388	-381.38177				-213.11758	1116.90625	-223.11864	-132.29289	889.25977	-728.63678	-378.10501	899.28094	-591.36951	-418.27744	955.12976	-919.67676	-106.31366	485.97498	-645.42072	-466.82535	458.65500	-686.13757	-97.36248	79.07415	-561.15729	-512.63269	83.64342	-892.57312	
17	0.160	-142.25992	1429.65283	-483.01392	-221.61188	1695.41492	-633.79688				-104.88332	1561.40698	-645.03387	-128.06329	1454.60156	-832.72205	-381.29620	1415.46033	-536.55927	-235.81960	1256.52197	-652.38092	-367.75363	1489.81885	-762.60474	-69.76098	1330.19226	-789.37012	-390.43451	1194.89819	-372.61090	-81.33249	1204.91650	-940.52747	-205.72215	1116.58093	-214.79364	-128.15440	888.22412	-722.59552	-373.64426	898.59277	-584.74414	-414.79919	953.85529	-912.56903	-103.42677	483.81750	-639.23773	-462.99643	456.66107	-680.76776	-97.10923	78.27715	-556.94507	-512.25629	84.79348	-891.26355	
18	0.170	-137.19257	1428.51245	-477.58215	-216.51099	1693.93188	-627.34589				-100.24933	1559.56006	-638.82123	-123.89771	1453.46423	-827.12177	-377.06180	1414.77319	-530.90076	-230.30519	1255.53015	-646.24713	-363.51727	1488.89868	-756.49933	-65.55285	1328.80750	-784.15497	-383.91724	1193.80359	-365.39459	-77.64674	1203.76501	-936.58112	-198.20799	1116.11646	-207.01227	-124.45908	887.40503	-715.63507	-369.34708	897.85541	-577.99969	-411.08829	952.25970	-905.23309	-100.20943	482.28052	-633.06183	-459.45529	455.42386	-675.10315	-95.34090	78.99318	-553.90088	-511.56378	86.50532	-892.54626	
19	0.180	-131.60684	1426.73914	-471.06555	-211.21501	1693.00049	-619.92853				-95.34821	1558.13867	-632.01807	-119.79510	1452.80273	-821.91522	-372.97983	1412.70166	-528.53833	-225.95525	1255.28699	-640.89618	-358.97409	1488.45898	-750.06775	-60.82999	1327.07422	-777.67700	-376.14212	1194.39087	-356.91229	-73.71081	1202.12781	-929.62891	-190.34534	1116.09778	-199.92506	-120.62875	886.51398	-709.51306	-364.53665	896.69653	-572.29199	-406.76819	951.21259	-896.79871	-96.18412	480.28323	-626.83392	-456.56262	453.47311	-670.87640	-92.79681	79.38140	-551.12988	-511.21243	89.39600	-888.80597	
20	0.190	-126.41730	1425.24744	-465.03928	-205.92264	1692.17871	-613.61432				-90.27767	1556.85681	-626.53711	-115.50625	1452.16101	-815.40649	-365.17630	1414.15820	-518.95789	-221.65779	1254.83850	-633.99854	-354.63858	1488.17847	-743.86938	-55.91713	1325.96472	-772.02649	-370.24203	1194.44153	-350.92908	-70.18172	1202.25525	-925.28699	-183.64781	1116.63782	-191.96979	-117.18404	886.42261	-702.32758	-359.90390	896.41852	-565.82935	-402.53384	950.57922	-889.11945	-93.30860	479.55661	-621.08124	-451.97791	452.12769	-664.27155	-92.51743	79.63681	-550.13867	-510.13080	90.45355	-887.86584	
